<mxfile host="drawio-plugin" modified="2023-03-30T09:24:00.497Z" agent="5.0 (Windows NT 6.2; Win64; x64) AppleWebKit/537.36 (KHTML, like Gecko) Chrome/84.0.4147.105 Safari/537.36" etag="nHqpuoh93VGPAYYVob-j" version="14.7.4" type="embed">
<diagram id="GNU3i8hCxYjH3E0Nk9u4" name="Page-1">
<mxGraphModel dx="1052" dy="563" grid="1" gridSize="10" guides="1" tooltips="1" connect="1" arrows="1" fold="1" page="1" pageScale="1" pageWidth="850" pageHeight="1100" math="0" shadow="0">
<root>
<mxCell id="0"/>
<mxCell id="1" parent="0"/>
<mxCell id="FXCXVvDxTQtwc45PbP1s-120" style="edgeStyle=orthogonalEdgeStyle;rounded=0;orthogonalLoop=1;jettySize=auto;html=1;startArrow=block;startFill=1;endArrow=block;endFill=1;" parent="1" source="FXCXVvDxTQtwc45PbP1s-93" target="FXCXVvDxTQtwc45PbP1s-94" edge="1">
<mxGeometry relative="1" as="geometry"/>
</mxCell>
<mxCell id="FXCXVvDxTQtwc45PbP1s-122" style="edgeStyle=orthogonalEdgeStyle;rounded=0;orthogonalLoop=1;jettySize=auto;html=1;endArrow=block;endFill=1;" parent="1" source="FXCXVvDxTQtwc45PbP1s-96" target="FXCXVvDxTQtwc45PbP1s-94" edge="1">
<mxGeometry relative="1" as="geometry"/>
</mxCell>
<mxCell id="FXCXVvDxTQtwc45PbP1s-124" style="edgeStyle=orthogonalEdgeStyle;rounded=0;orthogonalLoop=1;jettySize=auto;html=1;entryX=0.82;entryY=1.023;entryDx=0;entryDy=0;entryPerimeter=0;startArrow=block;startFill=1;" parent="1" source="FXCXVvDxTQtwc45PbP1s-100" target="FXCXVvDxTQtwc45PbP1s-94" edge="1">
<mxGeometry relative="1" as="geometry">
<Array as="points">
<mxPoint x="202.5" y="489.5"/>
<mxPoint x="202.5" y="459.5"/>
</Array>
</mxGeometry>
</mxCell>
<mxCell id="FXCXVvDxTQtwc45PbP1s-143" value="Subnet 10.10.20.0/24" style="swimlane;fontStyle=0;horizontal=1;collapsible=0;startSize=28;swimlaneLine=0;swimlaneFillColor=none;fillColor=none;rounded=0;whiteSpace=wrap;html=1;absoluteArcSize=1;arcSize=12;strokeColor=#2A8838;verticalAlign=top;align=left;spacingLeft=30;spacingTop=1;dashed=0;strokeWidth=1;" parent="1" vertex="1">
<mxGeometry x="413.5" y="639.5" width="260" height="200" as="geometry"/>
</mxCell>
<mxCell id="FXCXVvDxTQtwc45PbP1s-144" value="" style="aspect=fixed;perimeter=ellipsePerimeter;html=1;align=center;shadow=0;dashed=0;fontColor=#4277BB;labelBackgroundColor=#ffffff;fontSize=12;spacingTop=3;image;image=img/lib/ibm/vpc/SubnetTag.svg;part=1;" parent="FXCXVvDxTQtwc45PbP1s-143" vertex="1">
<mxGeometry width="30" height="40" as="geometry"/>
</mxCell>
<mxCell id="FXCXVvDxTQtwc45PbP1s-149" value="Subnet 10.10.10.0/24" style="swimlane;fontStyle=0;horizontal=1;collapsible=0;startSize=28;swimlaneLine=0;swimlaneFillColor=none;fillColor=none;rounded=0;whiteSpace=wrap;html=1;absoluteArcSize=1;arcSize=12;strokeColor=#2A8838;verticalAlign=top;align=left;spacingLeft=30;spacingTop=1;dashed=0;strokeWidth=1;" parent="1" vertex="1">
<mxGeometry x="421" y="380" width="260" height="220" as="geometry"/>
</mxCell>
<mxCell id="FXCXVvDxTQtwc45PbP1s-150" value="" style="aspect=fixed;perimeter=ellipsePerimeter;html=1;align=center;shadow=0;dashed=0;fontColor=#4277BB;labelBackgroundColor=#ffffff;fontSize=12;spacingTop=3;image;image=img/lib/ibm/vpc/SubnetTag.svg;part=1;" parent="FXCXVvDxTQtwc45PbP1s-149" vertex="1">
<mxGeometry width="30" height="40" as="geometry"/>
</mxCell>
<mxCell id="FXCXVvDxTQtwc45PbP1s-99" value="VSI" style="aspect=fixed;perimeter=ellipsePerimeter;html=1;align=center;shadow=0;dashed=0;fontColor=#4277BB;labelBackgroundColor=#ffffff;fontSize=12;spacingTop=3;image;image=img/lib/ibm/vpc/Instance.svg;" parent="FXCXVvDxTQtwc45PbP1s-149" vertex="1">
<mxGeometry x="186.5" y="90.5" width="60" height="60" as="geometry"/>
</mxCell>
<mxCell id="FXCXVvDxTQtwc45PbP1s-151" value="Subnet 10.20.30.0/24" style="swimlane;fontStyle=0;horizontal=1;collapsible=0;startSize=28;swimlaneLine=0;swimlaneFillColor=none;fillColor=none;rounded=0;whiteSpace=wrap;html=1;absoluteArcSize=1;arcSize=12;strokeColor=#2A8838;verticalAlign=top;align=left;spacingLeft=30;spacingTop=1;dashed=0;strokeWidth=1;" parent="1" vertex="1">
<mxGeometry x="783.5" y="369.5" width="250" height="220" as="geometry"/>
</mxCell>
<mxCell id="FXCXVvDxTQtwc45PbP1s-152" value="" style="aspect=fixed;perimeter=ellipsePerimeter;html=1;align=center;shadow=0;dashed=0;fontColor=#4277BB;labelBackgroundColor=#ffffff;fontSize=12;spacingTop=3;image;image=img/lib/ibm/vpc/SubnetTag.svg;part=1;" parent="FXCXVvDxTQtwc45PbP1s-151" vertex="1">
<mxGeometry width="30" height="40" as="geometry"/>
</mxCell>
<mxCell id="FXCXVvDxTQtwc45PbP1s-153" value="Zone 1 10.10.0.0/16" style="swimlane;fontStyle=0;horizontal=1;collapsible=0;startSize=28;swimlaneLine=0;swimlaneFillColor=none;fillColor=none;rounded=0;whiteSpace=wrap;html=1;absoluteArcSize=1;arcSize=0;strokeColor=#00882B;verticalAlign=top;align=left;spacingLeft=30;dashed=1;strokeWidth=1;container=1;" parent="1" vertex="1">
<mxGeometry x="274" y="270" width="407" height="590" as="geometry"/>
</mxCell>
<mxCell id="FXCXVvDxTQtwc45PbP1s-154" value="" style="aspect=fixed;perimeter=ellipsePerimeter;html=1;align=center;shadow=0;dashed=0;fontColor=#4277BB;labelBackgroundColor=#ffffff;fontSize=12;spacingTop=3;image;image=img/lib/ibm/vpc/ZoneTag.svg;part=1;" parent="FXCXVvDxTQtwc45PbP1s-153" vertex="1">
<mxGeometry width="30" height="30" as="geometry"/>
</mxCell>
<mxCell id="FXCXVvDxTQtwc45PbP1s-160" value="Security&lt;br&gt;Group 1" style="rounded=0;whiteSpace=wrap;html=1;absoluteArcSize=1;arcSize=0;strokeColor=#FD0000;fillColor=none;verticalAlign=top;align=center;spacingLeft=5;dashed=1;dashPattern=5 2;labelPosition=center;verticalLabelPosition=middle;strokeWidth=2;" parent="FXCXVvDxTQtwc45PbP1s-153" vertex="1">
<mxGeometry x="150" y="170" width="600" height="120" as="geometry"/>
</mxCell>
<mxCell id="FXCXVvDxTQtwc45PbP1s-100" value="Floating&lt;br&gt;IP" style="aspect=fixed;perimeter=ellipsePerimeter;html=1;align=center;shadow=0;dashed=0;fontColor=#4277BB;labelBackgroundColor=#ffffff;fontSize=12;spacingTop=3;image;image=img/lib/ibm/vpc/FloatingIP.svg;flipH=1;" parent="FXCXVvDxTQtwc45PbP1s-153" vertex="1">
<mxGeometry x="170" y="190" width="60" height="60" as="geometry"/>
</mxCell>
<mxCell id="FXCXVvDxTQtwc45PbP1s-161" value="VPC" style="swimlane;fontStyle=0;horizontal=1;collapsible=0;startSize=28;swimlaneLine=0;swimlaneFillColor=none;fillColor=none;rounded=0;whiteSpace=wrap;html=1;absoluteArcSize=1;arcSize=12;strokeColor=#417CB9;verticalAlign=top;align=left;spacingLeft=30;spacingTop=1;dashed=0;strokeWidth=1;" parent="1" vertex="1">
<mxGeometry x="263.5" y="229.5" width="810" height="640" as="geometry"/>
</mxCell>
<mxCell id="FXCXVvDxTQtwc45PbP1s-162" value="" style="aspect=fixed;perimeter=ellipsePerimeter;html=1;align=center;shadow=0;dashed=0;fontColor=#4277BB;labelBackgroundColor=#ffffff;fontSize=12;spacingTop=3;image;image=img/lib/ibm/vpc/VPCTag.svg;part=1;" parent="FXCXVvDxTQtwc45PbP1s-161" vertex="1">
<mxGeometry width="30" height="30" as="geometry"/>
</mxCell>
<mxCell id="FXCXVvDxTQtwc45PbP1s-163" value="Region" style="swimlane;fontStyle=0;horizontal=1;collapsible=0;startSize=28;swimlaneLine=0;swimlaneFillColor=none;fillColor=none;rounded=0;whiteSpace=wrap;html=1;absoluteArcSize=1;arcSize=0;strokeColor=#00882B;verticalAlign=top;align=left;spacingLeft=30;dashed=1;strokeWidth=1;container=1;dashPattern=1 1;" parent="1" vertex="1">
<mxGeometry x="253.5" y="189.5" width="1070" height="720" as="geometry"/>
</mxCell>
<mxCell id="FXCXVvDxTQtwc45PbP1s-164" value="" style="aspect=fixed;perimeter=ellipsePerimeter;html=1;align=center;shadow=0;dashed=0;fontColor=#4277BB;labelBackgroundColor=#ffffff;fontSize=12;spacingTop=3;image;image=img/lib/ibm/vpc/RegionTag.svg;part=1;" parent="FXCXVvDxTQtwc45PbP1s-163" vertex="1">
<mxGeometry width="30" height="30" as="geometry"/>
</mxCell>
<mxCell id="FXCXVvDxTQtwc45PbP1s-167" value="" style="swimlane;fontStyle=0;horizontal=1;collapsible=0;startSize=28;swimlaneLine=0;swimlaneFillColor=none;fillColor=none;rounded=0;whiteSpace=wrap;html=1;absoluteArcSize=1;arcSize=0;strokeColor=#4376BB;verticalAlign=top;align=left;spacingLeft=5;dashed=0;strokeWidth=1;container=1;" parent="1" vertex="1">
<mxGeometry x="123.5" y="149.5" width="1450" height="800" as="geometry"/>
</mxCell>
<mxCell id="FXCXVvDxTQtwc45PbP1s-168" value="Public&lt;br&gt;Network" style="aspect=fixed;perimeter=ellipsePerimeter;html=1;align=left;shadow=0;dashed=0;labelBackgroundColor=none;fontSize=12;spacingTop=0;image;image=img/lib/ibm/vpc/PublicTag.svg;part=1;labelPosition=right;verticalLabelPosition=middle;verticalAlign=middle;" parent="FXCXVvDxTQtwc45PbP1s-167" vertex="1">
<mxGeometry width="30" height="30" as="geometry"/>
</mxCell>
<mxCell id="FXCXVvDxTQtwc45PbP1s-169" value="Enterprise&lt;br&gt;Network" style="aspect=fixed;perimeter=ellipsePerimeter;html=1;align=left;shadow=0;dashed=0;labelBackgroundColor=none;fontSize=12;spacingTop=0;image;image=img/lib/ibm/vpc/EnterpriseTag.svg;part=1;labelPosition=right;verticalLabelPosition=middle;verticalAlign=middle;" parent="FXCXVvDxTQtwc45PbP1s-167" vertex="1">
<mxGeometry x="1310" width="30" height="30" as="geometry"/>
</mxCell>
<mxCell id="FXCXVvDxTQtwc45PbP1s-170" value="IBM Cloud" style="swimlane;fontStyle=0;horizontal=1;collapsible=0;startSize=28;swimlaneLine=0;swimlaneFillColor=none;fillColor=none;rounded=0;whiteSpace=wrap;html=1;absoluteArcSize=1;arcSize=12;strokeColor=#417CB9;verticalAlign=top;align=left;spacingLeft=30;spacingTop=1;dashed=0;strokeWidth=1;" parent="FXCXVvDxTQtwc45PbP1s-167" vertex="1">
<mxGeometry x="120" width="1190" height="800" as="geometry"/>
</mxCell>
<mxCell id="FXCXVvDxTQtwc45PbP1s-171" value="" style="aspect=fixed;perimeter=ellipsePerimeter;html=1;align=center;shadow=0;dashed=0;fontColor=#4277BB;labelBackgroundColor=#ffffff;fontSize=12;spacingTop=3;image;image=img/lib/ibm/vpc/CloudTag.svg;part=1;" parent="FXCXVvDxTQtwc45PbP1s-170" vertex="1">
<mxGeometry width="30" height="30" as="geometry"/>
</mxCell>
<mxCell id="HwulmQ-oOyahczQ6ZAeN-1" style="edgeStyle=orthogonalEdgeStyle;rounded=0;orthogonalLoop=1;jettySize=auto;html=1;endArrow=block;endFill=1;" parent="1" target="FXCXVvDxTQtwc45PbP1s-96" edge="1">
<mxGeometry relative="1" as="geometry">
<mxPoint x="413.5" y="409.5" as="sourcePoint"/>
<Array as="points">
<mxPoint x="413.5" y="409.5"/>
</Array>
</mxGeometry>
</mxCell>
<mxCell id="2" value="" style="endArrow=classic;html=1;exitX=0.5;exitY=0;exitDx=0;exitDy=0;entryX=0.75;entryY=1;entryDx=0;entryDy=0;" edge="1" parent="1" source="FXCXVvDxTQtwc45PbP1s-143" target="FXCXVvDxTQtwc45PbP1s-96">
<mxGeometry width="50" height="50" relative="1" as="geometry">
<mxPoint x="700" y="520" as="sourcePoint"/>
<mxPoint x="750" y="470" as="targetPoint"/>
</mxGeometry>
</mxCell>
<mxCell id="3" value="" style="endArrow=classic;startArrow=classic;html=1;exitX=0.75;exitY=0;exitDx=0;exitDy=0;" edge="1" parent="1" source="FXCXVvDxTQtwc45PbP1s-143" target="FXCXVvDxTQtwc45PbP1s-160">
<mxGeometry width="50" height="50" relative="1" as="geometry">
<mxPoint x="630" y="560" as="sourcePoint"/>
<mxPoint x="680" y="510" as="targetPoint"/>
</mxGeometry>
</mxCell>
<mxCell id="FXCXVvDxTQtwc45PbP1s-115" value="Icons" style="" parent="0"/>
<mxCell id="FXCXVvDxTQtwc45PbP1s-93" value="User" style="aspect=fixed;perimeter=ellipsePerimeter;html=1;align=center;shadow=0;dashed=0;fontColor=#4277BB;labelBackgroundColor=#ffffff;fontSize=12;spacingTop=3;image;image=img/lib/ibm/users/user.svg;" parent="FXCXVvDxTQtwc45PbP1s-115" vertex="1">
<mxGeometry x="153.5" y="219.5" width="60" height="60" as="geometry"/>
</mxCell>
<mxCell id="FXCXVvDxTQtwc45PbP1s-94" value="Internet" style="aspect=fixed;perimeter=ellipsePerimeter;html=1;align=center;shadow=0;dashed=0;fontColor=#4277BB;labelBackgroundColor=#ffffff;fontSize=12;spacingTop=3;image;image=img/lib/ibm/vpc/Internet.svg;" parent="FXCXVvDxTQtwc45PbP1s-115" vertex="1">
<mxGeometry x="153.5" y="379.5" width="60" height="60" as="geometry"/>
</mxCell>
<mxCell id="FXCXVvDxTQtwc45PbP1s-96" value="Public&lt;br&gt;Gateway" style="aspect=fixed;perimeter=ellipsePerimeter;html=1;align=center;shadow=0;dashed=0;fontColor=#4277BB;labelBackgroundColor=#ffffff;fontSize=12;spacingTop=3;image;image=img/lib/ibm/vpc/PublicGateway.svg;" parent="FXCXVvDxTQtwc45PbP1s-115" vertex="1">
<mxGeometry x="288.5" y="379.5" width="60" height="60" as="geometry"/>
</mxCell>
<mxCell id="FXCXVvDxTQtwc45PbP1s-98" value="VSI" style="aspect=fixed;perimeter=ellipsePerimeter;html=1;align=center;shadow=0;dashed=0;fontColor=#4277BB;labelBackgroundColor=#ffffff;fontSize=12;spacingTop=3;image;image=img/lib/ibm/vpc/Instance.svg;" parent="FXCXVvDxTQtwc45PbP1s-115" vertex="1">
<mxGeometry x="503.5" y="459.5" width="60" height="60" as="geometry"/>
</mxCell>
<mxCell id="FXCXVvDxTQtwc45PbP1s-101" value="VSI" style="aspect=fixed;perimeter=ellipsePerimeter;html=1;align=center;shadow=0;dashed=0;fontColor=#4277BB;labelBackgroundColor=#ffffff;fontSize=12;spacingTop=3;image;image=img/lib/ibm/vpc/Instance.svg;" parent="FXCXVvDxTQtwc45PbP1s-115" vertex="1">
<mxGeometry x="803.5" y="459.4999999999999" width="60" height="60" as="geometry"/>
</mxCell>
<mxCell id="FXCXVvDxTQtwc45PbP1s-102" value="VSI" style="aspect=fixed;perimeter=ellipsePerimeter;html=1;align=center;shadow=0;dashed=0;fontColor=#4277BB;labelBackgroundColor=#ffffff;fontSize=12;spacingTop=3;image;image=img/lib/ibm/vpc/Instance.svg;" parent="FXCXVvDxTQtwc45PbP1s-115" vertex="1">
<mxGeometry x="943.5" y="459.4999999999999" width="60" height="60" as="geometry"/>
</mxCell>
<mxCell id="FXCXVvDxTQtwc45PbP1s-105" value="VSI" style="aspect=fixed;perimeter=ellipsePerimeter;html=1;align=center;shadow=0;dashed=0;fontColor=#4277BB;labelBackgroundColor=#ffffff;fontSize=12;spacingTop=3;image;image=img/lib/ibm/vpc/Instance.svg;" parent="FXCXVvDxTQtwc45PbP1s-115" vertex="1">
<mxGeometry x="493.5" y="729.5" width="60" height="60" as="geometry"/>
</mxCell>
<mxCell id="FXCXVvDxTQtwc45PbP1s-106" value="VSI" style="aspect=fixed;perimeter=ellipsePerimeter;html=1;align=center;shadow=0;dashed=0;fontColor=#4277BB;labelBackgroundColor=#ffffff;fontSize=12;spacingTop=3;image;image=img/lib/ibm/vpc/Instance.svg;" parent="FXCXVvDxTQtwc45PbP1s-115" vertex="1">
<mxGeometry x="593.5" y="729.5" width="60" height="60" as="geometry"/>
</mxCell>
<mxCell id="FXCXVvDxTQtwc45PbP1s-172" value="Zone 2 10.20.0.0/16" style="swimlane;fontStyle=0;horizontal=1;collapsible=0;startSize=28;swimlaneLine=0;swimlaneFillColor=none;fillColor=none;rounded=0;whiteSpace=wrap;html=1;absoluteArcSize=1;arcSize=0;strokeColor=#00882B;verticalAlign=top;align=left;spacingLeft=30;dashed=1;strokeWidth=1;container=1;" parent="FXCXVvDxTQtwc45PbP1s-115" vertex="1">
<mxGeometry x="773.5" y="269.5" width="280" height="590" as="geometry"/>
</mxCell>
<mxCell id="FXCXVvDxTQtwc45PbP1s-173" value="" style="aspect=fixed;perimeter=ellipsePerimeter;html=1;align=center;shadow=0;dashed=0;fontColor=#4277BB;labelBackgroundColor=#ffffff;fontSize=12;spacingTop=3;image;image=img/lib/ibm/vpc/ZoneTag.svg;part=1;" parent="FXCXVvDxTQtwc45PbP1s-172" vertex="1">
<mxGeometry width="30" height="30" as="geometry"/>
</mxCell>
</root>
</mxGraphModel>
</diagram>
</mxfile>